<svg xmlns="http://www.w3.org/2000/svg" viewBox="0 0 750 500"><g id="freepik--Shadow--inject-24"><ellipse cx="375" cy="465.33" rx="315.66" ry="5.16" style="fill:#f5f5f5;"></ellipse></g><g id="freepik--Flask--inject-24"><g><g><path d="M347.43,446.63l-18.12-88.07h-68.25l-18.12,88.07c-1.34,6.51,2.97,12.75,8.81,12.75h86.86c5.84,0,10.15-6.24,8.81-12.75Z" style="fill:#0067FF;"></path><g><path d="M296.98,358.56h-37.64c-2.05,0-3.71-1.66-3.71-3.71h0c0-2.05,1.66-3.71,3.71-3.71h37.64v7.42Z" style="fill:#0067FF;"></path><path d="M293.4,358.56h37.64c2.05,0,3.71-1.66,3.71-3.71h0c0-2.05-1.66-3.71-3.71-3.71h-37.64v7.42Z" style="fill:#0067FF;"></path></g><g style="opacity:.3;"><path d="M296.98,358.56h-37.64c-2.05,0-3.71-1.66-3.71-3.71h0c0-2.05,1.66-3.71,3.71-3.71h37.64v7.42Z" style="fill:#fff;"></path><path d="M293.4,358.56h37.64c2.05,0,3.71-1.66,3.71-3.71h0c0-2.05-1.66-3.71-3.71-3.71h-37.64v7.42Z" style="fill:#fff;"></path></g><path d="M347.43,446.63l-18.12-88.07h-68.25l-18.12,88.07c-1.34,6.51,2.97,12.75,8.81,12.75h86.86c5.84,0,10.15-6.24,8.81-12.75Z" style="fill:#fff; opacity:.3;"></path><path d="M325.37,358.56h-60.12l-16.81,87.18c-.75,3.88,1.83,7.55,5.3,7.55h83.15c3.47,0,6.04-3.68,5.3-7.55l-16.81-87.18Z" style="fill:#fff; opacity:.3;"></path><polygon points="261.07 358.56 260.48 361.39 329.9 361.39 329.31 358.56 261.07 358.56" style="opacity:.2;"></polygon><path d="M275.21,355.33h-13.5c-.68,0-1.22-.55-1.22-1.22h0c0-.68,.55-1.22,1.22-1.22h13.5c.68,0,1.22,.55,1.22,1.22h0c0,.68-.55,1.22-1.22,1.22Z" style="fill:#fff; opacity:.3;"></path><path d="M280.02,355.33h-1.37c-.68,0-1.22-.55-1.22-1.22h0c0-.68,.55-1.22,1.22-1.22h1.37c.68,0,1.22,.55,1.22,1.22h0c0,.68-.55,1.22-1.22,1.22Z" style="fill:#fff; opacity:.3;"></path><path d="M342.19,445.74l-8.01-41.53-77.82,.48-7.92,41.05c-.75,3.88,1.83,7.55,5.3,7.55h83.15c3.47,0,6.04-3.68,5.3-7.55Z" style="fill:#0067FF;"></path><path d="M295.35,402.55c-21.54,0-39,.96-39,2.14s17.46,2.14,39,2.14,39-.96,39-2.14-17.46-2.14-39-2.14Z" style="fill:#0067FF;"></path><path d="M295.35,402.55c-21.54,0-39,.96-39,2.14s17.46,2.14,39,2.14,39-.96,39-2.14-17.46-2.14-39-2.14Z" style="opacity:.3;"></path></g><g style="opacity:.3;"><path d="M277.78,373.03c2.33,1.2,1.69,4.39,1.49,5.67-1.42,9.19-1.87,15.98-3.8,25.13-.59,2.82-1.62,5.67-3.62,7.76-1.99,2.08-5.52,3.01-7.79,1.23-2.46-1.93-2.2-5.66-1.71-8.75,1.01-6.39,2.03-12.77,3.04-19.16,.41-2.58,.83-5.2,2.02-7.53,1.18-2.33,3.27-4.35,5.85-4.77,0,0,3.12-.3,4.53,.42Z" style="fill:#fff;"></path></g><path d="M270.5,432.35c-.93,4.24-4.06,7.15-7,6.51-2.94-.64-4.56-4.6-3.64-8.84s4.06-7.15,7-6.51c2.94,.64,4.56,4.6,3.64,8.84Z" style="fill:#fff; opacity:.3;"></path><path d="M336.84,451.11h-83.15c-2.72,0-4.88-2.26-5.33-5.11-.59,3.78,1.94,7.29,5.33,7.29h83.15c3.39,0,5.92-3.51,5.33-7.29-.45,2.85-2.61,5.11-5.33,5.11Z" style="opacity:.1;"></path></g></g><g id="freepik--Brain--inject-24"><g><g><path d="M437.49,305.95c-2.07,10.58-13.53,37.1-21.02,44.85-2.15,2.23-5.02,4.43-8.04,3.75-2.16-.49-3.73-2.35-4.8-4.29-2.83-5.09-3.29-11.1-4.21-16.85-2.65-16.61-9.67-32.5-20.15-45.65l43.94-12.96,14.29,31.15Z" style="fill:#0067FF;"></path><g style="opacity:.3;"><path d="M437.49,305.95c-2.07,10.58-13.53,37.1-21.02,44.85-2.15,2.23-5.02,4.43-8.04,3.75-2.16-.49-3.73-2.35-4.8-4.29-2.83-5.09-3.29-11.1-4.21-16.85-2.65-16.61-9.67-32.5-20.15-45.65l43.94-12.96,14.29,31.15Z"></path></g><path d="M295.14,250.67s-63.3,5.87-61.57-62.96c0,0-9.62-33.94,20.49-45.21,0,0,4.05-28.92,35.86-30.66,0,0,21.98-28.92,61.32-21.4,0,0,34.46-19.11,66.28,.56,0,0,21.07-7.5,32.64,11.01,0,0,41.07-1.16,52.64,34.71,0,0,26.61,8.1,23.72,35.86,0,0,37.55,34.81,15.57,82.82,0,0-14.41,30.56-47.39,32.87,0,0-5.21,30.08-43.38,30.08,0,0-12.32,2.7-23.31-1.13-12.43-4.34-18.32-18.58-13.14-30.68h0s-53.22,5.78-71.15,3.47c-17.93-2.31-43.38-10.99-48.59-39.34Z" style="fill:#0067FF;"></path><path d="M297,249.6c-.13,0-.23-.09-.25-.22-1.42-12.72,3.72-25.81,13.42-34.16s23.41-11.49,35.78-8.18c.61,.16,1.22,.34,1.84,.52,3.13,.91,6.36,1.84,9.39,.89,2.08-.65,3.8-2.14,5.47-3.58,.24-.21,.48-.41,.72-.62,12.22-10.37,29.55-14.94,45.3-11.97-1.55-9.64,1.76-19.87,8.69-26.76,.1-.1,.26-.1,.35,0,.1,.1,.1,.26,0,.35-6.9,6.86-10.15,17.09-8.49,26.67,.01,.08-.01,.16-.07,.22-.06,.06-.14,.09-.22,.07-15.7-3.08-33.04,1.44-45.24,11.79-.24,.2-.48,.41-.72,.62-1.7,1.47-3.47,2.99-5.64,3.67-3.17,1-6.48,.04-9.68-.88-.61-.18-1.22-.35-1.83-.51-12.21-3.26-25.74-.17-35.32,8.08-9.58,8.24-14.66,21.17-13.25,33.72,.02,.14-.08,.26-.22,.28h-.03Z"></path><path d="M295.83,240.82h-.03c-18.55-2.07-35.13-12.31-43.27-26.71-9.05-16-6.74-37.02,5.36-48.9,.1-.1,.26-.1,.35,0,.1,.1,.09,.26,0,.35-11.95,11.72-14.22,32.48-5.28,48.29,8.07,14.27,24.5,24.41,42.89,26.46,.14,.02,.24,.14,.22,.28-.01,.13-.12,.22-.25,.22Z"></path><path d="M304.26,160.46h0c-10.84-.37-20.81-8.22-23.72-18.67-2.91-10.44,1.57-22.32,10.66-28.24,.12-.07,.27-.04,.35,.07,.08,.12,.04,.27-.07,.35-8.91,5.8-13.3,17.45-10.45,27.69,2.85,10.24,12.63,17.94,23.26,18.3,.14,0,.25,.12,.24,.26,0,.13-.12,.24-.25,.24Z"></path><path d="M357.67,159.21c-.11,0-.21-.07-.24-.18-.04-.13,.04-.27,.18-.31,11.01-3,15.82-13.77,15.7-23.12-.13-10.13-8.27-19.41-17.79-20.27-4.42-.4-9.22,.77-14.65,3.56-.12,.06-.27,.02-.34-.11-.06-.12-.01-.27,.11-.34,5.52-2.84,10.41-4.02,14.92-3.61,9.76,.88,18.12,10.38,18.25,20.76,.12,9.53-4.8,20.53-16.07,23.6-.02,0-.04,0-.07,0Z"></path><path d="M397.74,154.02c-.13,0-.25-.11-.25-.24-.32-8.4,3.91-16.98,10.77-21.84,6.71-4.76,15.94-5.97,23.67-3.14-1.89-5.66-1.19-12.02,1.91-17.12,3.2-5.26,8.75-8.87,14.86-9.65,.13-.02,.26,.08,.28,.22,.02,.14-.08,.26-.22,.28-5.87,.75-11.42,4.36-14.5,9.42-3.07,5.05-3.72,11.65-1.69,17.2,.03,.09,.01,.2-.06,.26-.07,.07-.17,.09-.27,.05-7.67-3.02-16.98-1.89-23.7,2.89-6.72,4.77-10.87,13.18-10.55,21.42,0,.14-.1,.25-.24,.26h0Z"></path><path d="M467.86,184.29h0c-.14,0-.25-.12-.24-.26,.2-7.35-2.61-14.62-7.7-19.93-5.09-5.31-12.23-8.42-19.59-8.53-.14,0-.25-.12-.25-.25,0-.14,.11-.25,.25-.25h0c7.49,.11,14.76,3.28,19.94,8.68,5.18,5.41,8.04,12.8,7.84,20.29,0,.14-.12,.24-.25,.24Z"></path><path d="M492.33,251.57c-1.12,0-2.23-.05-3.35-.14-.14-.01-.24-.13-.23-.27s.14-.23,.27-.23c10.69,.88,21.52-2.56,29.73-9.45,8.21-6.89,13.48-16.97,14.46-27.64,.43-4.69,.18-11.53-3.44-17.53-3.29-5.45-9.07-9.02-14.73-9.1-.08,0-.15-.04-.2-.1-.05-.06-.06-.14-.04-.22,2.64-9.52-.14-20.2-7.09-27.22-6.95-7.02-17.6-9.91-27.15-7.37-.13,.04-.27-.04-.31-.18-.04-.13,.04-.27,.18-.31,9.71-2.59,20.56,.36,27.63,7.5,7,7.07,9.84,17.79,7.3,27.4,5.72,.21,11.51,3.84,14.83,9.33,3.69,6.11,3.95,13.07,3.51,17.83-.99,10.81-6.32,21-14.63,27.98-7.45,6.26-17.04,9.71-26.74,9.71Z"></path><path d="M400.41,114.62h0c-.14,0-.25-.11-.25-.25,.05-5.73,2.2-11.54,5.9-15.93,3.69-4.39,9.05-7.5,14.69-8.53,.13-.02,.27,.07,.29,.2,.02,.14-.07,.27-.2,.29-5.53,1.01-10.78,4.06-14.39,8.36s-5.73,9.99-5.78,15.61c0,.14-.11,.25-.25,.25Z"></path><path d="M389.76,259.29c-3.35,0-6.75-.14-10.19-.44-15.35-1.3-31.4-5.24-52.02-12.79-.13-.05-.2-.19-.15-.32,.05-.13,.19-.19,.32-.15,20.58,7.53,36.59,11.47,51.89,12.76,19.4,1.64,37.43-1.39,52.13-8.75,16.75-8.39,29.47-23.05,34.04-39.22,.04-.13,.17-.21,.31-.17,.13,.04,.21,.18,.17,.31-4.61,16.3-17.43,31.08-34.3,39.53-12.17,6.1-26.61,9.24-42.2,9.24Z"></path><path d="M472.7,240.81c-.08,0-.15-.03-.2-.1-4-5.3-10.58-8.57-17.22-8.57-.06,0-.13,0-.19,0h0c-.14,0-.25-.11-.25-.25,0-.14,.11-.25,.25-.25,.06,0,.13,0,.2,0,6.79,0,13.53,3.35,17.62,8.77,.08,.11,.06,.27-.05,.35-.04,.03-.1,.05-.15,.05Z"></path><path d="M413.62,288.61c-.08,0-.16-.04-.21-.12-.07-.12-.04-.27,.08-.34,16.03-10.13,37.02-12.31,54.79-5.69,.13,.05,.2,.19,.15,.32-.05,.13-.19,.2-.32,.15-17.62-6.57-38.45-4.41-54.34,5.64-.04,.03-.09,.04-.13,.04Z"></path><path d="M331.16,205.31s-.09-.01-.13-.03c-.12-.07-.16-.22-.09-.34,2.71-4.6,3.56-10.21,2.31-15.4-1.24-5.19-4.54-9.81-9.04-12.68-.12-.07-.15-.23-.08-.35,.08-.12,.23-.15,.35-.08,4.61,2.94,7.98,7.67,9.26,12.99,1.27,5.32,.41,11.06-2.37,15.77-.05,.08-.13,.12-.22,.12Z"></path><path d="M353.11,114.88c-.13,0-.24-.11-.25-.24-.14-3.4,.55-6.83,1.99-9.91,.06-.13,.21-.18,.33-.12,.13,.06,.18,.21,.12,.33-1.4,3.01-2.07,6.36-1.94,9.68,0,.14-.1,.25-.24,.26h0Z"></path><g style="opacity:.3;"><path d="M463.43,218.57c.48-.41,.96-.82,1.44-1.23,2.11,12.73-5.74,25.58-16.9,33.23-11.16,7.65-25.11,10.9-38.85,12.67-13.78,1.78-27.89,2.23-41.56-.18-13.67-2.41-26.93-7.83-37.05-16.7,0,0,30.18,12.99,71.38,10.09,41.2-2.91,61.53-37.88,61.53-37.88Z"></path></g><g style="opacity:.3;"><path d="M302.8,223.89c6.2-11.11,11.18-19.79,21.44-24.06s22.44-3.6,32.17,1.75c6.64-7.16,15.64-12.11,25.25-13.88s19.78-.37,28.54,3.95c-7.96-.11-15.97-.21-23.8,1.23-7.83,1.44-15.54,4.55-21.25,10.1-2.45,2.38-3.42,3.82-6.59,5.08-4.38,1.73-8.97,.67-13.46-.76-15.07-4.83-32.36,2.26-42.3,16.59"></path></g><g style="opacity:.3;"><path d="M294.9,166.92c-3.1-3.6-13.64-5.46-21.37-1.45-7.91,2.82-12.04,11.75-12.77,20.12-.54,6.25,.42,12.81,3.83,18.08,3.41,5.27,9.54,8.99,15.79,8.47,6.25-.52,12.04-5.95,11.96-12.23-.05-4.33-2.6-8.83-.81-12.77,1.24-2.74,4.25-4.28,5.8-6.85,2.45-4.07,2.34-7.82-2.43-13.37Z" style="fill:#fff;"></path></g><g style="opacity:.3;"><path d="M296.07,128.1c-1.52,.91-2.46,2.61-2.73,4.36s.08,3.55,.69,5.21c.74,2.03,1.9,3.97,3.68,5.19,1.77,1.22,4.23,1.59,6.11,.54,1.72-.96,2.69-2.95,2.79-4.92s-.55-3.9-1.46-5.65c-.93-1.78-2.17-3.46-3.91-4.47-1.73-1.01-4.01-1.24-5.72-.2" style="fill:#fff;"></path></g><g style="opacity:.3;"><path d="M386.37,217.32c-2.05-3.12-6.11-4.39-9.85-4.21-3.73,.18-7.33,5.34-10.9,6.44-12.07,3.72-16.36-3.28-35.87,.42-4.15,.75-8.39,1.53-12.05,3.62-3.66,2.08-6.71,5.76-6.87,9.97-.16,4.21,3.41,8.55,7.61,8.2,4.98-.41,7.5-6.17,11.67-8.93,3.8-2.52,8.82-2.37,13.22-1.17,4.4,1.2,8.51,3.32,12.92,4.51,7.13,1.92,14.94,1.26,21.65-1.83,3.27-1.51,6.38-3.67,8.23-6.76,1.85-3.09,2.22-7.24,.24-10.25Z" style="fill:#fff;"></path></g><circle cx="409.83" cy="215.22" r="7.7" transform="translate(-36.45 338.17) rotate(-43.11)" style="fill:#fff; opacity:.3;"></circle><g style="opacity:.3;"><path d="M530,258.52c-11.9,11.75-27.95,19.21-44.6,20.73,3.05,10.38-1.52,22-9.52,29.27-4.94,4.5-10.98,7.52-17.41,9.44,31.69-3.47,36.24-29.69,36.24-29.69,32.97-2.31,47.39-32.87,47.39-32.87,4.78-10.44,6.74-20.26,6.89-29.24-3.42,12.18-9.98,23.47-18.98,32.36Z"></path></g><g style="opacity:.3;"><path d="M433.05,141.96c-.03-2.98-2.37-5.12-4.98-6.06l-.06-.02c-4.92-1.73-10.51-.52-14.37,2.99-.76,.69-1.46,1.46-2.13,2.31-1.64,2.12-2.81,4.76-2.07,7.52,.22,.82,.64,1.6,1.25,2.2,2.5,2.48,6.03,1.21,8.59-.55,2.18-1.49,4.25-3.38,6.86-3.81,2.18-.36,4.59,.35,6.21-2.18,.46-.71,.7-1.56,.7-2.4Z" style="fill:#fff;"></path></g><g style="opacity:.3;"><path d="M534.63,213.09c3.53,11.45-.13,24.8-9.02,32.84-8.89,8.04-22.54,10.35-33.58,5.69,0,0,16.69-.91,26.89-9.95,12.43-11.01,15.71-28.58,15.71-28.58Z"></path></g><g style="opacity:.3;"><path d="M373.53,138.35c-.19,7.12-3.98,14.05-9.86,18.06-5.88,4.01-13.72,5-20.42,2.58l1.62,1.02c6.4,5,16.17,5.08,22.65,.19,6.48-4.9,9.07-14.32,6.01-21.84Z"></path></g></g><g><circle cx="540.61" cy="118.8" r="11.79" style="fill:#0067FF;"></circle><circle cx="369.91" cy="310.14" r="6.87" style="fill:#0067FF;"></circle><circle cx="282.51" cy="89.82" r="6.87" style="fill:#0067FF;"></circle><path d="M521.59,108.07c0,3.26-2.64,5.9-5.89,5.9s-5.9-2.64-5.9-5.9,2.64-5.9,5.9-5.9,5.89,2.64,5.89,5.9Z" style="fill:#0067FF;"></path><path d="M347.13,308.07c0,1.9-1.54,3.43-3.43,3.43s-3.43-1.54-3.43-3.43,1.54-3.43,3.43-3.43,3.43,1.54,3.43,3.43Z" style="fill:#0067FF;"></path><path d="M298.05,75.23c0,1.9-1.54,3.43-3.43,3.43s-3.43-1.54-3.43-3.43,1.54-3.43,3.43-3.43,3.43,1.54,3.43,3.43Z" style="fill:#0067FF;"></path><circle cx="529.76" cy="102.2" r="2.39" style="fill:#0067FF;"></circle><path d="M352.04,321.36c0,.77-.62,1.39-1.39,1.39s-1.39-.62-1.39-1.39,.62-1.39,1.39-1.39,1.39,.62,1.39,1.39Z" style="fill:#0067FF;"></path><path d="M281.98,73.45c0,1.15-.93,2.08-2.08,2.08s-2.08-.93-2.08-2.08,.93-2.08,2.08-2.08,2.08,.93,2.08,2.08Z" style="fill:#0067FF;"></path><circle cx="282.51" cy="89.82" r="6.87" style="fill:#fff; opacity:.4;"></circle><path d="M298.05,75.23c0,1.9-1.54,3.43-3.43,3.43s-3.43-1.54-3.43-3.43,1.54-3.43,3.43-3.43,3.43,1.54,3.43,3.43Z" style="fill:#fff; opacity:.4;"></path><path d="M281.98,73.45c0,1.15-.93,2.08-2.08,2.08s-2.08-.93-2.08-2.08,.93-2.08,2.08-2.08,2.08,.93,2.08,2.08Z" style="fill:#fff; opacity:.4;"></path><circle cx="540.61" cy="118.8" r="11.79" style="fill:#fff; opacity:.4;"></circle><path d="M521.59,108.07c0,3.26-2.64,5.9-5.89,5.9s-5.9-2.64-5.9-5.9,2.64-5.9,5.9-5.9,5.89,2.64,5.89,5.9Z" style="fill:#fff; opacity:.4;"></path><circle cx="529.76" cy="102.2" r="2.39" style="fill:#fff; opacity:.4;"></circle><circle cx="369.91" cy="310.14" r="6.87" style="fill:#fff; opacity:.3;"></circle><path d="M347.13,308.07c0,1.9-1.54,3.43-3.43,3.43s-3.43-1.54-3.43-3.43,1.54-3.43,3.43-3.43,3.43,1.54,3.43,3.43Z" style="fill:#fff; opacity:.3;"></path><path d="M352.04,321.36c0,.77-.62,1.39-1.39,1.39s-1.39-.62-1.39-1.39,.62-1.39,1.39-1.39,1.39,.62,1.39,1.39Z" style="fill:#fff; opacity:.3;"></path></g></g></g><g id="freepik--Speech_Bubble--inject-24"><g><g><path d="M200.26,74.31h-27.82c-7.13,0-12.92,5.78-12.92,12.92v15.59c0,7.13,5.78,12.92,12.92,12.92h6.33l1.01,7.2,7.68-7.2h12.8c7.13,0,12.92-5.78,12.92-12.92v-15.59c0-7.13-5.78-12.92-12.92-12.92Z" style="fill:#0067FF;"></path><g><path d="M195.41,94.75c0,1.84,1.49,3.32,3.33,3.32s3.32-1.49,3.32-3.32-1.49-3.32-3.32-3.32-3.33,1.49-3.33,3.32Z" style="fill:#fff;"></path><circle cx="187.41" cy="94.75" r="3.32" style="fill:#fff;"></circle><circle cx="175.78" cy="94.75" r="3.32" style="fill:#fff;"></circle></g></g><path d="M200.98,71.85h-17.65c-.48,0-.48,.75,0,.75h17.65c.48,0,.48-.75,0-.75h0Z" style="fill:#0067FF;"></path><path d="M181.12,71.85h-1.48c-.2,0-.38,.17-.38,.38s.16,.38,.38,.38h1.48c.2,0,.38-.17,.38-.38s-.16-.38-.38-.38h0Z" style="fill:#0067FF;"></path></g></g><g id="freepik--Character_2--inject-24"><g><g><path d="M631.65,172.09c-3.92,10.7,6.5,16.08,13.32,31.84,6.82,15.76-9.64,34.57-34.9,34.99-25.26,.41-26.06-23.79-22.14-41.15,3.91-17.36-4.27-20.19-2.53-33.44,2.28-17.42,27.33-30.62,37.29-14.63,8.86-.84,12.38,13.04,8.96,22.39Z" style="fill:#263238;"></path><path d="M614.27,259.58l.05-1.41c.03-.68,.2-1.35,.51-1.96l4.4-8.68,5.15-1.03c3.64,3.94,.05,11.78,.05,11.78v1.29c0,2.11-1.4,3.97-3.43,4.55l-.7,.2c-3.1,.89-6.16-1.51-6.03-4.73Z" style="fill:#ffc3bd;"></path></g><path d="M587.98,196.63c-7.09,7.41-11.77,26.18-12.39,26.63l-9.89,10.75c10.03,9.58,14.94,10.5,20.24,2.88,4.86-6.99,16.05-31.2,16.05-31.2l-14.01-9.06Z" style="fill:#0067FF;"></path><path d="M597.77,271l21.02,89.37,17.14,80.41,18.97-5.75s-3.55-31.17-9.65-57.22c-1.4-6-4.45-12.41-5.17-17.26-.65-4.25-.7-15.36-1.18-25.29-.57-12-3.34-21.61-7.54-33.05,0,0,8.25-16.08,.12-32.22l-33.69,1.01Z" style="fill:#0067FF;"></path><path d="M615.04,275l-32.58-8.66-5.35,91.6-3.11,84.12h16.73s5.45-30.41,7.05-57.12c.36-6.15,.41-16.56,1.09-21.42,.59-4.26,1.46-8.84,3.84-18.46,2.87-11.68,3.77-27.04,3.04-39.23,0,0,12.5-13.05,9.29-30.84Z" style="fill:#0067FF;"></path><g><path d="M565.55,460.59c1.3-.77,2.77-1.36,4.35-1.73h0s4.73-3.45,7.18-13.97l6.16-1.13c2.12-.35,4.3,.33,5.48,1.7,.16,.19,.29,.4,.38,.62,.28,1.12,.47,2.25,.57,3.39,.25,3.87,.2,7.74-.15,11.61h-1.15l-.27-7.29c0-2.48-2.69,.4-3.45,3.04-.77,2.64-2.36,5.53-9.52,5.53-8.24,.03-11.71-.25-9.57-1.77Z" style="fill:#263238;"></path><path d="M577.95,442.07s-1.1,3.86-3.36,9.19c-.93,2.74-2.55,5.33-4.77,7.61,0,0,5.35,.79,7.73-1.91,2.37-2.7,5.74-12,11.16-11.44-.41-.69-1.34-2.85-1.96-3.44h-8.8Z" style="fill:#ffc3bd;"></path></g><g><path d="M638.11,460.01c.91-1.2,2.05-2.3,3.37-3.24h0s3.08-4.98,1.37-15.65l5.27-3.38c1.83-1.12,4.1-1.32,5.72-.49,.23,.12,.42,.26,.59,.43,.68,.93,1.28,1.91,1.8,2.93,1.69,3.49,3.11,7.09,4.25,10.8l-1.07,.43-3.01-6.65c-.94-2.29-2.34,1.39-2.05,4.12,.29,2.74-.09,6.01-6.72,8.72-7.62,3.14-10.94,4.19-9.53,1.97Z" style="fill:#263238;"></path><path d="M642.65,438.75s.23,3.32,.31,9.2c.17,2.89-.35,5.9-1.54,8.85,0,0,5.25-1.29,6.43-4.69,1.18-3.4,.78-13.27,6.02-14.81-.64-.48-1.36-.89-2.15-1.21l-9.06,2.66Z" style="fill:#ffc3bd;"></path></g><g style="opacity:.3;"><path d="M587.97,204.74c-1.07,1.83-1.43,2.86-2.1,4.97-.67,2.1-1.04,5.93-1.2,7.9l3.61,1.04c-.14-4.82-.16-9.09-.3-13.91Z"></path></g><path d="M635.13,219.11l5.15-20.24c-3.76-5.61-21.55-9.91-21.55-9.91l-12.24,.67s-4.71,1.05-8.73,2.36c-5.38,1.75-8.29,3.16-9.57,6.15,0,0-2.24,6.61-.89,20.24,.37,3.75,1.22,23.52,.17,29.96l-6.56,16.33c22.37,17.42,51.23-1.99,51.23-1.99-1.01-3.08-4.47-9.34-4.93-12.34,.33-3.84,1.4-6.35,3.03-13.07,.31-1.3,4.36-16.88,4.91-18.14Z" style="fill:#0067FF;"></path><g><path d="M579.16,323.84s-10.69,.11-10.69-4.86,11.19-57.76,12.42-66.76c1.24-9.01,7.09-55.59,7.09-55.59,1.96-2.32,5.85-3.49,9.77-4.65l-18.58,131.86Z" style="fill:#0067FF;"></path><path d="M579.16,323.84s-10.69,.11-10.69-4.86,11.19-57.76,12.42-66.76c1.24-9.01,7.09-55.59,7.09-55.59,1.96-2.32,5.85-3.49,9.77-4.65l-18.58,131.86Z" style="fill:#fff; opacity:.8;"></path></g><path d="M586.84,235.53s-8.59-4.54-9.24-6.49c-.65-1.95-1.55-7.16,4.42-9.55,1.98-.79,5.47,.99,5.47,.99v14.15l-.65,.9Z" style="opacity:.3;"></path><g><g><g><path d="M621.61,190.49s-3.63,2.79-8.31,6.83c-.97,.84-2.05,1.57-3.18,2.17-3.07,1.63-5.86,2.56-6.62,1.08-.17-.32-.3-.68-.39-1.05-.64-2.48-.38-5.95,1.62-7.55,2.26-1.8,3.34-3.33,2.94-5.76-.21-1.38-.71-2.8-1.3-4.18l2.6-1.56,9.28-9.37c-1.06,5.75-1.54,16,3.35,19.39Z" style="fill:#ffc3bd;"></path><path d="M607.74,186.75c2.55-1.52,5.35-4.14,5.02-7.15-.15-1.26-.42-2.46-.73-3.23l-5.19,6.87c.43,1.11,.58,1.84,.89,3.51Z" style="opacity:.2;"></path><path d="M620.05,160.54c-.87,9.54-1.04,13.58-5.97,18.59-7.4,7.52-18.8,4.99-20.76-4.46-1.77-8.51-.04-22.68,9.33-26.69,9.23-3.95,18.27,3.03,17.4,12.57Z" style="fill:#ffc3bd;"></path><path d="M607.7,163.64c-.05,1.01-.59,1.84-1.22,1.85-.63,.01-1.1-.79-1.05-1.8,.05-1.01,.59-1.84,1.22-1.85,.63-.01,1.1,.79,1.05,1.8Z" style="fill:#263238;"></path><path d="M598.29,163.61c-.05,.98-.59,1.78-1.22,1.79-.63,.01-1.09-.77-1.05-1.75,.05-.98,.59-1.78,1.22-1.79,.63-.01,1.09,.77,1.05,1.75Z" style="fill:#263238;"></path><path d="M609.69,160.13c-.12,.01-.25-.02-.34-.11-1.47-1.36-3.12-.88-3.14-.88-.25,.07-.49-.07-.55-.32-.06-.25,.1-.51,.35-.59,.09-.03,2.16-.63,3.99,1.06,.18,.17,.19,.47,0,.67-.09,.1-.2,.15-.31,.16Z" style="fill:#263238;"></path><path d="M595.13,158.83c-.1-.03-.18-.1-.22-.21-.09-.22,.02-.49,.24-.61,2.18-1.23,3.8-.29,3.86-.25,.19,.11,.24,.38,.1,.61-.13,.22-.4,.31-.59,.19-.06-.04-1.33-.74-3.06,.24-.11,.06-.23,.07-.33,.04Z" style="fill:#263238;"></path><path d="M600.85,163.15s-1.49,3.57-3.18,5.8c-.29,.39-.11,.96,.35,1.13,1.18,.43,2.56,.04,2.56,.04l.27-6.96Z" style="fill:#ed847e;"></path></g><path d="M607.01,161.88l-2.19-.52s1.2,1.63,2.19,.52Z" style="fill:#263238;"></path><path d="M597.47,161.89l-2.19-.52s1.2,1.63,2.19,.52Z" style="fill:#263238;"></path><path d="M617.88,166.71c-2.34,1.05-5.41-10.2-4.93-13.02-4.86,1.35-8.42-.56-8.2-1.39-3.43,3.34-9.64,5.99-8.94,2.39,.69-3.6,6.81-10.73,16.4-8.39s11.77,12.73,11.68,16.72c-.09,4-6.01,3.69-6.01,3.69Z" style="fill:#263238;"></path><path d="M622.94,168.31c-1.13,1.96-2.96,3.18-4.64,3.61-2.52,.63-3.83-3.43-2.97-5.96,.78-2.28,3.26-3.78,5.71-3.29,2.42,.49,3.18,3.4,1.89,5.64Z" style="fill:#ffc3bd;"></path></g><path d="M617.6,168.05h-.02c-.14,0-.24-.13-.23-.27,.06-.97,.52-1.9,1.26-2.54,.73-.64,1.71-.98,2.69-.92,.14,0,.24,.13,.23,.27,0,.14-.13,.26-.26,.23-.84-.05-1.69,.24-2.33,.79-.64,.56-1.03,1.36-1.09,2.2,0,.13-.12,.23-.25,.23Z" style="opacity:.2;"></path><path d="M601.57,172.1c.77,.87,1.81,2.62,1.81,2.62,.18-.07,.35-.13,.52-.21,2.36-.95,3.14-2.17,3.29-3.23,.08-.58-.04-1.12-.19-1.54-.17-.49-.4-.79-.4-.79-.95,1.25-3.08,2.3-4.25,2.82-.48,.22-.8,.34-.8,.34Z" style="fill:#263238;"></path><path d="M602.37,171.77l.55,.76c2.22-.9,3.67-1.83,4.09-2.78-.17-.49-.4-.79-.4-.79-.95,1.25-3.08,2.3-4.25,2.82Z" style="fill:#fff;"></path><path d="M603.91,174.52c2.36-.95,3.14-2.17,3.29-3.23-.79,.35-1.71,.87-2.41,1.57-.54,.54-.78,1.12-.88,1.66Z" style="fill:#de5753;"></path></g><g><path d="M624.88,190.71s-6.13,7.06-7.73,16.6-3.55,120.1-3.2,121.34c.36,1.24,33.59-.71,35.37-4.09,1.78-3.38-5.15-43.9-7.29-51.72-2.13-7.82-5.56-11.72-6.67-17.95-1.13-6.35,5.56-58.26,5.24-55.75,.53-.6-9.33-7.79-15.73-8.43Z" style="fill:#0067FF;"></path><path d="M624.88,190.71s-6.13,7.06-7.73,16.6-3.55,120.1-3.2,121.34c.36,1.24,33.59-.71,35.37-4.09,1.78-3.38-5.15-43.9-7.29-51.72-2.13-7.82-5.56-11.72-6.67-17.95-1.13-6.35,5.56-58.26,5.24-55.75,.53-.6-9.33-7.79-15.73-8.43Z" style="fill:#fff; opacity:.8;"></path></g><path d="M615.84,232.76l8.3,.98,1.89-14.45s1.99,18.34,.88,18.96c-1.11,.62-11.07-5.49-11.07-5.49Z" style="isolation:isolate; opacity:.3;"></path><path d="M579.48,317.2s6.22,5.2,17.08,0c10.86-5.2,9.7-15.09,9.55-18.45-.13-2.82-7.9-61.87-7.9-61.87l-2.35-2.97-8.36,.71-8.01,82.57Z" style="isolation:isolate; opacity:.3;"></path><g><g><path d="M573.8,180.95h15.29c4.53,0,8.21,3.68,8.21,8.21v114.5c0,7.56-6.14,13.69-13.69,13.69h-4.32c-7.56,0-13.69-6.14-13.69-13.69v-114.5c0-4.53,3.68-8.21,8.21-8.21Z" transform="translate(-26.66 74.9) rotate(-7.21)" style="fill:#0067FF;"></path><path d="M565.6,180.95h31.71v122.71c0,7.56-6.14,13.69-13.69,13.69h-4.32c-7.56,0-13.69-6.14-13.69-13.69v-122.71h0Z" transform="translate(-26.66 74.9) rotate(-7.21)" style="fill:#fff; opacity:.7;"></path><path d="M559.71,182.06l15.24,120.54c.74,5.88,5.89,10.57,12.35,10.77,8.49,.27,14.98-6.47,14.05-13.83l-15.28-120.82-26.37,3.33Z" style="fill:#0067FF; opacity:.3;"></path><path d="M568.65,252.75l6.3,49.85c.74,5.88,5.89,10.57,12.35,10.77,8.49,.27,14.98-6.47,14.05-13.83l-6.34-50.12-26.37,3.33Z" style="fill:#0067FF;"></path><path d="M589.47,311.5c-8.38,.91-13.99-4.73-14.83-11.39l.31,2.49c.74,5.88,5.89,10.57,12.35,10.77,8.49,.27,14.98-6.47,14.05-13.83l-.35-2.76c.84,6.66-3.38,13.84-11.53,14.72Z" style="fill:#fff; opacity:.3;"></path><rect x="552.88" y="179.78" width="41.51" height="8.38" rx="3.62" ry="3.62" transform="translate(-18.55 73.41) rotate(-7.21)" style="fill:#0067FF;"></rect><rect x="552.88" y="179.78" width="41.51" height="8.38" rx="3.62" ry="3.62" transform="translate(-18.55 73.41) rotate(-7.21)" style="fill:#fff; opacity:.7;"></rect><rect x="557.99" y="188.14" width="31.71" height="1.62" transform="translate(-19.17 73.47) rotate(-7.21)" style="opacity:.3;"></rect><path d="M595.02,249.42c.12,.92-5.69,2.4-12.97,3.32s-13.28,.93-13.39,0,5.69-2.4,12.97-3.32,13.28-.92,13.39,0Z" style="fill:#0067FF;"></path><path d="M595.02,249.42c.12,.92-5.69,2.4-12.97,3.32s-13.28,.93-13.39,0,5.69-2.4,12.97-3.32,13.28-.92,13.39,0Z" style="opacity:.3;"></path><path d="M578.21,275.48h-.04c-1.48,.19-2.81-.75-2.98-2.1l-3.68-29.1c-.15-1.17,.64-2.3,1.87-2.68h.04c1.61-.51,3.29,.45,3.48,1.99l3.68,29.11c.17,1.35-.89,2.6-2.37,2.78Z" style="fill:#fff; opacity:.4;"></path><path d="M582.42,283.38c.19,1.48-.98,2.85-2.6,3.06-1.62,.2-3.09-.83-3.28-2.31s.98-2.85,2.6-3.06c1.62-.21,3.09,.83,3.28,2.31Z" style="fill:#fff; opacity:.4;"></path><path d="M593.09,263.65c1.31,9.13,2.47,18.28,3.47,27.45-1.31-9.13-2.47-18.28-3.47-27.45h0Z" style="fill:#fff;"></path></g><g><path d="M563.75,235.22s9.04,.89,10.21,2.55c1.17,1.66-1.71,2.03-1.71,2.03,0,0,3.19-.21,3.46,1.13,.33,1.61-2.69,1.98-2.69,1.98,0,0,2.61-.06,2.77,1.15,.17,1.26-3.21,1.92-3.21,1.92,0,0,1.85,.3,1.48,1.21-.36,.91-7.5,2.45-9.85,1.48-2.35-.97-3.14-7.28-3.09-9.37s.05-4.59,2.25-5.38l.36,1.3h0Z" style="fill:#ffc3bd;"></path><path d="M572.27,239.96s0,0-.01,0l-5.58,.1c-.07,0-.14-.07-.14-.15,0-.08,.06-.16,.13-.16l5.58-.1c.07,0,.14,.07,.14,.15,0,.08-.05,.15-.12,.16Z" style="opacity:.2;"></path><path d="M572.89,243.1h0l-5.35,.52c-.07,0-.14-.06-.15-.14,0-.09,.04-.14,.12-.17l5.35-.52c.07,0,.14,.06,.15,.14,0,.08-.04,.16-.12,.17Z" style="opacity:.2;"></path><path d="M572.43,246.17l-3.97,.5c-.07,0-.14-.05-.15-.14-.01-.08,.04-.16,.12-.17l3.97-.5c.07,0,.14,.05,.15,.14,.01,.08-.04,.16-.12,.17Z" style="opacity:.2;"></path></g><g><polygon points="597.75 237.02 602 239.66 605.47 230.81 602 230.43 597.75 237.02" style="fill:#ffc3bd;"></polygon><path d="M601.94,226.02c-1.64-2.54-5.74-4.17-8.1-5.25l.38,2.98,2.98,1.72c-1.26-.04-11.52-5.62-13.27-5.47-1.75,.15-.54,1.53-.54,1.53,0,0-2.27-1.31-3.04-.55-.2,.2-.34,.98,.6,1.74,2.12,1.71,6.76,5.08,6.76,5.08-.26-.2-6.28-3.94-7.26-4.38-1.27-.58-2.17-.2-2.48,.55-.44,1.07,6.86,5.96,7.02,6.38,0,0-4.11-2.96-5.46-2.32-1.34,.64,1.14,2.65,3.67,4,2.32,1.24,6.54,4.27,9.02,5.3,3.05,1.27,5.39,1.44,7.66-.68,2.27-2.11,2.9-4.5,2.9-4.5,0,0,.81-3.57-.84-6.11Z" style="fill:#ffc3bd;"></path><g><path d="M640.6,199.14c-5.88-5.38-10.68-.9-13.07,2.26-3.84,5.09-1.28,19.34-1.28,19.34h.03c.11,6.99,.12,15.95-.21,16.37l-21.39-8.64-6.97,13.15s7.85,3.62,19.94,9.01c12.67,5.66,19.69,4.89,22.67-3.91,1.47-4.34,1.83-12.51,1.86-19.13h0s2.08-25.11-1.58-28.45Z" style="fill:#0067FF;"></path><path d="M640.6,199.14c-5.88-5.38-10.68-.9-13.07,2.26-3.84,5.09-1.28,19.34-1.28,19.34h.03c.11,6.99,.12,15.95-.21,16.37l-21.39-8.64-6.97,13.15s7.85,3.62,19.94,9.01c12.67,5.66,19.69,4.89,22.67-3.91,1.47-4.34,1.83-12.51,1.86-19.13h0s2.08-25.11-1.58-28.45Z" style="fill:#fff; opacity:.8;"></path></g></g></g></g></g><g id="freepik--Character_1--inject-24"><g><g><path d="M148.51,163.49s8.47,1.9,11.11,11.34c2.9,10.35,10.07,43.03,10.07,43.03h18.01l4.07,12.7s-16.51,13.11-27.89,9.21c-11.37-3.9-13.14-15.83-13.14-15.83l-2.23-60.44Z" style="fill:#0067FF;"></path><path d="M148.51,163.49s8.47,1.9,11.11,11.34c2.9,10.35,10.07,43.03,10.07,43.03h18.01l4.07,12.7s-16.51,13.11-27.89,9.21c-11.37-3.9-13.14-15.83-13.14-15.83l-2.23-60.44Z" style="fill:#fff; opacity:.8;"></path></g><polygon points="160.35 232.67 158.66 195.38 167.43 240.49 162.1 239.77 160.35 232.67" style="opacity:.2;"></polygon><path d="M99.65,174.99c7.25,32.73,6.33,70.03,7.1,77.03,7.29-.47,36.83,1.84,51.81,.84,5.18-39.44-3.65-73.81-6.94-84.14-1.11-3.48-4.11-6.01-7.73-6.47-6.04-.77-14.53-1.04-22.29-.7-5.1,.22-10.52,1.23-14.92,2.26-5.02,1.18-8.15,6.15-7.03,11.18Z" style="fill:#0067FF;"></path><g><path d="M134.61,132.22c6.59,1.17,7.42,.57,7.5-4.13,.08-4.7,2.47-12.62-.86-15.09-2.12-1.57-2.99,.87-2.99,.87-.48-1.07-1.66-1.67-2.71-1.25-.14-.98-.3-3.49-2.12-4.21-1.82-.72-3.43,.94-3.43,.94,0,0,.13-3.85-2.47-3.48-2.6,.37-3.12,3.05-3.12,3.05,0,0-1.5-2.19-3.53-1.32-2.03,.86-1.63,3.37-1.63,3.37,0,0-2.16-1.03-3.76,.14-1.6,1.17-.43,3.05-.43,3.05,0,0-1.46-3.74-4.23-1.67-2.5,1.87-.24,4.79-.24,4.79,0,0-2.74-.44-3.4,.94-2.25,4.71,1.98,24.88,8.73,27.44,13.14,5.04,18.67-13.44,18.67-13.44Z" style="fill:#263238;"></path><g><g><g><path d="M116.08,158.92s1.55-6.15-.91-17.36c0-.01,.6-.23,.6-.24-.34-1.57-.71-3.02-1.07-4.28,0-.04,0-.05,0-.05l14.45,10.3c-.59,3.5,.23,10.38,.79,13.31,0,0,1.56,5.33-5.38,5.1-5.07-.17-8.47-6.76-8.47-6.76Z" style="fill:#e9b376;"></path><path d="M129.07,152.24l-8.54-2.52c.61,2.75,2.78,6.1,8.8,6.76,0,0-.4-3.06-.26-4.23Z" style="opacity:.2;"></path></g><g><path d="M115.05,129.66c.39,9.61,.41,15.04,5.17,20.03,7.15,7.5,18.84,3.46,21.34-6.11,2.25-8.61,1.24-22.88-8.1-26.81-9.2-3.87-18.79,3.28-18.4,12.89Z" style="fill:#e9b376;"></path><path d="M119.41,139.47c2.25-2.12,.82-12.24-.28-15.14,5.49,.52,23.19,.5,22.52-4.39-.67-4.89-7.11-9.04-17.64-5.61-8.79,2.87-10.97,7.23-11.01,10.81-.08,7.34,6.41,14.33,6.41,14.33Z" style="fill:#263238;"></path><path d="M111.09,137.58c.72,2.49,2.52,4.4,4.4,5.39,2.83,1.48,3.97-1.63,3.76-4.66-.19-2.73-.91-6.06-4.04-6.29-3.08-.23-4.95,2.71-4.13,5.56Z" style="fill:#e9b376;"></path><path d="M128.74,132.72c-.02,.98,.48,1.78,1.13,1.79,.64,0,1.18-.78,1.2-1.77,.02-.98-.48-1.78-1.13-1.79-.64,0-1.18,.78-1.2,1.77Z" style="fill:#263238;"></path><path d="M138.37,133.11c-.02,.98,.48,1.78,1.13,1.79,.64,0,1.18-.78,1.2-1.77,.02-.98-.48-1.78-1.13-1.79-.64,0-1.18,.78-1.2,1.77Z" style="fill:#263238;"></path><path d="M135.25,132.5s3.01,4.95,3.96,6.96c-1.39,1.21-3.74,.59-3.74,.59l-.22-7.54Z" style="fill:#d58745;"></path><path d="M126.43,128.04c.15,.06,.32,.05,.46-.06,1.65-1.23,3.25-.68,3.27-.67,.24,.09,.5-.04,.59-.28,.09-.24-.04-.5-.27-.59-.08-.03-2.09-.73-4.14,.8-.2,.15-.25,.44-.09,.64,.05,.07,.11,.11,.18,.14Z" style="fill:#263238;"></path><path d="M132.19,143.48h0c-1.9-.03-3.23-1.11-4.28-2.17-.15-.15-.15-.38,0-.53,.15-.15,.38-.15,.53,0,1.34,1.35,2.47,1.93,3.76,1.95,.21,0,.37,.17,.37,.38,0,.21-.17,.37-.38,.37Z" style="fill:#263238;"></path></g><path d="M117.67,138.19c-.13,0-.24-.1-.25-.23-.07-.79-.35-1.54-.81-2.19-.29-.42-.79-.96-1.47-1.14-.61-.16-1.28,.04-1.59,.48-.08,.11-.24,.14-.35,.06-.11-.08-.14-.24-.06-.35,.44-.62,1.31-.9,2.13-.68,.83,.22,1.41,.85,1.75,1.33,.5,.72,.81,1.56,.89,2.43,.01,.14-.09,.26-.23,.27h-.02Z" style="opacity:.2;"></path></g><path d="M142.71,129.06c.09-.02,.17-.06,.24-.12,.18-.18,.19-.47,.01-.65-1.77-1.82-3.84-1.4-3.94-1.4-.25,.05-.41,.29-.36,.54,.05,.25,.29,.41,.53,.36,.09-.02,1.69-.32,3.11,1.14,.11,.11,.27,.16,.41,.13Z" style="fill:#263238;"></path></g></g><g><polygon points="169.97 427.15 175.08 450.75 182.96 449.39 183.73 425.36 169.97 427.15" style="fill:#e9b376;"></polygon><g><path d="M174.76,462.16l6.85-.82s1.3-.9,2.12-.9c.82,0,3.71,.2,3.71,.2l18.18-2.18c-.24-.74-.5-1.4-.77-1.98-.34-.7-.7-1.29-1.09-1.78-1.35-1.7-2.96-2.17-4.65-2.08-2.56,.15-11.22-4.24-11.22-4.24l-3.66-1.72c-.03-1.17-.02-2.71-1.3-3.03-1.64-.41-3.04-.56-3.55,1.24l-.54,2.16-1.83-.06s-3.8-1.95-3.38-.07c.24,1.08-.95,6.24-.08,10.04,.2,.89,.4,1.72,.57,2.46h0c.37,1.63,.63,2.76,.63,2.76Z" style="fill:#263238;"></path><g style="opacity:.2;"><path d="M205.61,458.46l-18.18,2.18s-2.88-.2-3.71-.2c-.82,0-2.12,.9-2.12,.9l-6.85,.82s-.26-1.12-.63-2.75l30.72-2.93c.28,.58,.54,1.23,.77,1.98Z" style="fill:#fff;"></path></g><path d="M192.11,449.89c-.09-.07-.23-.07-.32,.01-.41,.35-.74,.82-.94,1.38-.1,.3,.34,.52,.44,.22,.17-.5,.46-.91,.82-1.22,.12-.1,.12-.29,0-.39h0Z" style="fill:#0067FF;"></path><path d="M190.56,449.21c-.09-.07-.23-.07-.32,.01-.41,.35-.74,.82-.94,1.38-.1,.3,.34,.52,.44,.22,.17-.5,.46-.91,.82-1.22,.12-.1,.12-.29,0-.39h0Z" style="fill:#0067FF;"></path><path d="M188.98,448.59c-.09-.07-.23-.07-.32,.01-.41,.35-.74,.82-.94,1.38-.1,.3,.34,.52,.44,.22,.17-.5,.46-.91,.82-1.22,.12-.1,.12-.29,0-.39h0Z" style="fill:#0067FF;"></path></g></g><g><polygon points="104.16 428.39 109.33 451.98 117.21 450.61 117.92 426.57 104.16 428.39" style="fill:#e9b376;"></polygon><g><path d="M107.22,463.05l6.9-.06s1.39-.75,2.21-.66c.82,.09,3.66,.61,3.66,.61l18.31-.15c-.15-.77-.34-1.45-.55-2.05-.26-.74-.55-1.36-.88-1.89-1.15-1.84-2.7-2.49-4.39-2.58-2.57-.14-10.68-5.46-10.68-5.46l-3.45-2.11c.1-1.17,.29-2.7-.95-3.16-1.59-.59-2.96-.9-3.67,.84l-.77,2.09-1.81-.27s-3.56-2.36-3.35-.44c.12,1.1-1.64,6.09-1.19,9.97,.1,.9,.2,1.76,.29,2.51h0c.19,1.67,.32,2.81,.32,2.81Z" style="fill:#263238;"></path><g style="opacity:.2;"><path d="M138.3,462.8l-18.31,.15s-2.84-.52-3.66-.61c-.82-.09-2.21,.66-2.21,.66l-6.9,.06s-.13-1.14-.32-2.81l30.85,.5c.21,.6,.4,1.29,.55,2.05Z" style="fill:#fff;"></path></g><path d="M125.84,452.78c-.09-.08-.22-.09-.31-.02-.45,.3-.83,.73-1.08,1.27-.13,.28,.28,.55,.41,.27,.23-.48,.56-.86,.95-1.12,.13-.09,.15-.27,.04-.39h0Z" style="fill:#0067FF;"></path><path d="M124.37,451.94c-.09-.08-.22-.09-.32-.02-.45,.31-.83,.73-1.08,1.27-.13,.28,.28,.55,.41,.27,.23-.48,.56-.86,.95-1.12,.13-.09,.15-.27,.04-.39h0Z" style="fill:#0067FF;"></path><path d="M122.86,451.15c-.09-.08-.22-.09-.32-.02-.45,.31-.83,.73-1.08,1.27-.13,.28,.28,.55,.41,.27,.23-.48,.56-.85,.95-1.12,.13-.09,.15-.27,.04-.39h0Z" style="fill:#0067FF;"></path></g></g><g><path d="M187.79,441.26l-18.91,3.55s-15.24-59.85-19.69-87.51c-1.36-8.41-4.52-20.43-7.39-33.07-3.63-15.93-8.2-33.16-11.94-46.65-3.95-14.21-6.88-24.43-6.88-24.43l32.53-2.08s18.79,70.6,21.85,97.86c3.19,28.34,10.42,92.32,10.42,92.32Z" style="fill:#263238;"></path><path d="M141.8,319.64c-3.63-16.53-8.2-34.41-11.94-48.41l3.42-7.29c8.07,9.67,10.15,39.5,8.52,55.7Z" style="opacity:.2;"></path><path d="M140.02,252.07s-1.85,75.85-4.51,102.04c-2.91,28.68-12.52,91.09-12.52,91.09h-20.54s1.1-66.43,3.91-94.13c.4-54.47-.59-96.83-.59-96.83l34.25-2.17Z" style="fill:#263238;"></path></g><g><path d="M127.77,166.86s-2.96,3.76-3.58,9.13c-7.39-3.47-10.91-11.9-10.91-11.9l2.23-2.39s8.21,1.59,12.27,5.16Z" style="opacity:.4;"></path><path d="M128.5,166.89s3.29,2.34,6.77,7.94c5.17-3.2,3.45-12.33,3.45-12.33l-4.21-.83s-1.88,1.74-6.01,5.22Z" style="opacity:.4;"></path><path d="M128.17,165.69l1.6,.18,2.68,2.09c.15,1.33,.01,2.59-.55,3.74,0,0-2.6,.63-4.75,.39-1.93-1.23-2.4-2.92-2.4-2.92l1.98-2.98,1.43-.5Z" style="fill:#263238;"></path><path d="M127.54,165.16s-2.33,4.97-3.9,9.9c-7.39-3.47-11.69-11.77-11.69-11.77l4.5-5.42s7.03,3.71,11.09,7.29Z" style="fill:#0067FF;"></path><path d="M127.54,165.16s4.38,3.63,7.99,8.34c5.17-3.2-.03-11.64-.03-11.64l-6.36-3.99s-1.26,6.62-1.6,7.29Z" style="fill:#0067FF;"></path><path d="M130.66,170.65s9.02,45.59,12.18,66.73l-3.17,11.47c-4.63-10.07-5.25-10.99-5.25-10.99-.74-8.62-6.24-67.04-6.24-67.04l2.48-.17Z" style="fill:#263238;"></path></g><g><path d="M153.21,311.31c-1.43-37.59-8.96-114.3-12.49-129.55-2.93-12.64-6.39-19.66-8.87-22.53-.67-.77,4.02,2.25,5.04,2.27,4.3,.09,10.12,.38,13.95,3.41,6.98,5.51,10.47,47.04,9.51,67.75,6.15,23.35,14.44,73.43,13.56,78.64h-20.7Z" style="fill:#0067FF;"></path><g style="opacity:.8;"><path d="M153.21,311.31c-1.43-37.59-8.96-114.3-12.49-129.55-2.93-12.64-6.39-19.66-8.87-22.53-.67-.77,4.02,2.25,5.04,2.27,4.3,.09,10.12,.38,13.95,3.41,6.98,5.51,10.47,47.04,9.51,67.75,6.15,23.35,14.44,73.43,13.56,78.64h-20.7Z" style="fill:#fff;"></path></g></g><path d="M139,161.4s10.57,21.48,11.05,25.87c.48,4.37-1.81,18.51-1.81,18.51,0,0,3.26-14.32,2.94-17.51-.81-8.1-12.19-26.86-12.19-26.86Z" style="opacity:.2;"></path><g><g><path d="M94.84,173.28c-1.03-7.86,13.31-10.79,17.61-11.57,.48-.09,2.87-2.47,2.87-2.47,0,0,8.37,18.25,10.4,48.28,1.23,18.26,2.37,75.15,1.54,104.76h-30.41c.16-14.66,6.21-71.08,5.07-83.56-1.14-12.48-5.9-46.4-7.08-55.44Z" style="fill:#0067FF;"></path><path d="M94.84,173.28c-1.03-7.86,13.31-10.79,17.61-11.57,.48-.09,2.87-2.47,2.87-2.47,0,0,8.37,18.25,10.4,48.28,1.23,18.26,2.37,75.15,1.54,104.76h-30.41c.16-14.66,6.21-71.08,5.07-83.56-1.14-12.48-5.9-46.4-7.08-55.44Z" style="fill:#fff; opacity:.8;"></path></g><path d="M104.62,189.38c.67,4.64,.94,23.37-3.53,32.37-.74-6.19-1.72-13.65-2.67-20.81l6.2-11.57Z" style="opacity:.2;"></path><path d="M111.63,163.49s.28,23.93,1.84,28.07c1.55,4.11,9.97,15.69,9.97,15.69,0,0-9.38-11.3-10.54-14.29-2.93-7.59-1.27-29.47-1.27-29.47Z" style="opacity:.2;"></path><polygon points="131.79 250.47 130.63 254.26 101.71 246.14 101.92 239.14 131.79 250.47" style="opacity:.2;"></polygon></g><g><g><path d="M126.33,264.61h0c1.58,2.24,5.39,2.31,8.59,.14l79.8-54.15-5.81-8.27-79.52,53.96c-3.3,2.24-4.68,6-3.05,8.32Z" style="fill:#263238;"></path><path d="M126.33,264.61h0c1.58,2.24,5.39,2.31,8.59,.14l79.8-54.15-5.81-8.27-79.52,53.96c-3.3,2.24-4.68,6-3.05,8.32Z" style="fill:#fff; opacity:.4;"></path><polygon points="204.17 205.54 210.11 213.72 208.44 214.85 202.58 206.62 204.17 205.54" style="opacity:.3;"></polygon><path d="M219.6,133.82c-24.41,17.17-30.29,50.88-13.12,75.29,17.17,24.41,50.88,30.29,75.29,13.12,24.41-17.17,30.29-50.88,13.12-75.29-17.17-24.41-50.88-30.29-75.29-13.12Zm3.64,3.7c21.97-15.45,52.3-10.17,67.75,11.8,15.45,21.97,10.17,52.3-11.8,67.75-21.97,15.45-52.3,10.16-67.75-11.8-15.45-21.97-10.17-52.3,11.8-67.75Z" style="fill:#263238;"></path></g><g style="opacity:.4;"><path d="M219.6,133.82c-24.41,17.17-30.29,50.88-13.12,75.29,17.17,24.41,50.88,30.29,75.29,13.12,24.41-17.17,30.29-50.88,13.12-75.29-17.17-24.41-50.88-30.29-75.29-13.12Zm3.64,3.7c21.97-15.45,52.3-10.17,67.75,11.8,15.45,21.97,10.17,52.3-11.8,67.75-21.97,15.45-52.3,10.16-67.75-11.8-15.45-21.97-10.17-52.3,11.8-67.75Z" style="fill:#fff;"></path></g><g><path d="M201.64,218.8s-8.71-6.3-11.05-5.74c-2.34,.56-.08,3.14-.08,3.14,0,0-2.66-2.69-3.96-1.71-1.55,1.17,.83,3.86,.83,3.86,0,0-2.26-2.1-3.36-1.16-1.13,.98,1.34,4.21,1.34,4.21,0,0-1.88-1.18-2.26-.09-.39,1.09,4.73,8.04,7.57,9.03,2.85,.99,8.49-3.99,10.08-5.89,1.59-1.89,3.55-4.11,2.22-6.53l-1.34,.87h0Z" style="fill:#e9b376;"></path><path d="M190.38,216.32h.01l4.87,4.47c.07,.06,.18,.05,.24-.02,.07-.07,.07-.18,0-.24l-4.87-4.46c-.07-.06-.18-.05-.24,.02-.07,.07-.07,.17-.02,.23Z" style="opacity:.2;"></path><path d="M187.38,218.62h0l4.34,4.66c.06,.06,.17,.06,.24,0,.07-.07,.08-.16,.02-.24l-4.34-4.66c-.06-.06-.17-.06-.24,0-.07,.07-.08,.17-.03,.24Z" style="opacity:.2;"></path><path d="M185.38,221.7l3.12,3.55c.06,.07,.17,.07,.24,0,.08-.07,.09-.17,.03-.24l-3.12-3.55c-.06-.07-.17-.07-.24,0-.08,.07-.09,.17-.03,.24Z" style="opacity:.2;"></path></g><g><g><g><path d="M139.27,238.82s3.19-2.35,6.43-1.82c3.24,.53,5.96,.09,8.34,.65,2.38,.56-.55,2.09-2.27,2.59-1.72,.5-3.67,1.08-3.08,2.31,.58,1.23,10.2,7.93,10.82,9.73,.61,1.8-1.28,1.2-1.28,1.2,0,0,2.29,1.69,1.87,2.78-.11,.28-.82,.76-1.99,.16-2.62-1.36-7.98-4.51-7.98-4.51,.31,.17,6.64,4.53,7.51,5.3,1.13,1.01,1.14,2.07,.53,2.7-.87,.9-8.9-4.23-9.39-4.21,0,0,4.72,2.8,4.67,4.41-.06,1.61-3.13,.02-5.56-1.91-2.24-1.76-7.08-4.64-9.18-6.66-2.59-2.48-3.77-4.73-2.65-7.9,1.12-3.17,3.21-4.83,3.21-4.83Z" style="fill:#e9b376;"></path><path d="M157.98,253.32s-.05,0-.07-.02c-1.86-1.3-3.8-2.53-5.77-3.66-.06-.03-.08-.11-.05-.17,.03-.06,.11-.08,.17-.05,1.98,1.13,3.93,2.36,5.79,3.67,.06,.04,.07,.12,.03,.17-.02,.04-.06,.05-.1,.05Z" style="opacity:.3;"></path></g><path d="M140.57,239.92c-.19-.14-4.48-3-4.48-3l-4.3,9.78,6,1.7,2.78-8.47Z" style="fill:#e9b376;"></path></g><g><path d="M96.57,168.25c-.28,.33-1.9,2.48-4.82,12.13-2.92,9.65-14.62,45.75-12.28,48.74s52.35,22.38,53.21,21.31c.86-1.07,6.32-18.21,6.32-18.21l-39.53-14.71,8.36-30.94-11.26-18.32Z" style="fill:#0067FF;"></path><path d="M96.57,168.25c-.28,.33-1.9,2.48-4.82,12.13-2.92,9.65-14.62,45.75-12.28,48.74s52.35,22.38,53.21,21.31c.86-1.07,6.32-18.21,6.32-18.21l-39.53-14.71,8.36-30.94-11.26-18.32Z" style="fill:#fff; opacity:.8;"></path></g></g><path d="M252.37,132.64s-23.21,35.78-13.49,53.82c9.72,18.05,43.56,23.85,51.67,14.98,8.11-8.87,9.49-62.89-38.18-68.81Z" style="fill:#fff; opacity:.3;"></path></g><g><path d="M225.23,148.09l-.37-.28c-2.07-1.55-1.72-4.76,.63-5.82,.68-.31,1.37-.59,2.06-.86,3.74-1.43,6.33,3.73,3.05,6.01-.06,.04-.12,.08-.18,.12-.37,.26-.73,.52-1.08,.79-1.22,.92-2.9,.95-4.12,.03Z" style="fill:#e6e6e6;"></path><path d="M223.83,157.3c-7.17,11.07-9.15,24.88-5.27,37.58,.61,1.99-2.09,3.33-3.29,1.63l-.07-.09c-9.74-13.85-8.96-31.94,.67-44.79,1.14-1.52,3.28-1.86,4.8-.72l2.38,1.79c1.45,1.09,1.76,3.09,.78,4.61Z" style="fill:#e6e6e6;"></path></g></g></g></svg>
